<?xml version="1.0" encoding="utf-8"?>
<!-- Generator: Adobe Illustrator 22.0.1, SVG Export Plug-In . SVG Version: 6.00 Build 0)  -->
<svg version="1.1" id="Laag_1" xmlns="http://www.w3.org/2000/svg" xmlns:xlink="http://www.w3.org/1999/xlink" x="0px" y="0px"
	 viewBox="0 0 113.3 38.8" style="enable-background:new 0 0 113.3 38.8;" xml:space="preserve">
<style type="text/css">
	.st0{fill:none;stroke:#ED6E2C;stroke-width:1.5;stroke-miterlimit:10;}
	.st1{fill:none;stroke:#ED6E2C;stroke-width:1.5;stroke-linecap:square;stroke-miterlimit:7;}
</style>
<path class="st0" d="M5.3,11v16.7c0,0,0.3,5.5,4.6,5.5s17.8,0,17.8,0s5.2,0,5.2-5.4s0-17.2,0-17.2s0.4-5-6-5s-16,0-16,0
	S5.3,5.8,5.3,11z"/>
<circle class="st0" cx="19.1" cy="19.4" r="7.5"/>
<circle class="st0" cx="27.7" cy="10.9" r="1.3"/>
<path class="st0" d="M42.9,11v16.6c0,0,0.3,5.5,4.6,5.5s17.7,0,17.7,0s5.2,0,5.2-5.3s0-17.1,0-17.1s0.4-5-5.9-5
	c-6.3,0-15.9,0-15.9,0S42.9,5.8,42.9,11z"/>
<path class="st0" d="M60.6,33.2v-9.5h3.1c0,0,0.8,0,0.9-0.9s0.3-2.7,0.3-2.7s0.2-0.7-0.9-0.8c-1.1,0-3.4,0-3.4,0v-3
	c0,0,0-1.7,1.7-1.7c1.7,0.1,2.3,0.3,2.4-0.9c0.1-1.2,0-2,0-2s0.1-0.8-0.5-0.9c-0.5-0.1-2.9,0-2.9,0s-5.1,0.1-5,5.2l0,3.2h-2.3
	c0,0-0.7,0-0.8,0.7c-0.1,0.6,0,2.9,0,2.9s0,0.7,0.6,0.7s2.5,0.1,2.5,0.1v9.5"/>
<path class="st0" d="M80.5,11.1v16.6c0,0,0.3,5.5,4.6,5.5c4.3,0,17.7,0,17.7,0s5.2,0,5.2-5.3s0-17.1,0-17.1s0.4-5-5.9-5
	s-15.9,0-15.9,0S80.5,5.8,80.5,11.1z"/>
<path class="st1" d="M101.1,14.6c0,0,1.4-0.3,2-0.6c0,0-0.7,1.4-1.8,2c0,0,0.2,5.5-3.3,8.3c-3.5,2.8-7.8,4.3-13.3,1.2
	c0,0,2.9,0.5,5.5-1.5c0,0-2.9-0.3-3.4-2.6c0,0,1,0.1,1.5-0.1c0,0-3-0.5-2.9-3.7c0,0,1.1,0.5,1.6,0.5c0,0-2.7-2-1.1-5
	c0,0,3.8,4,7.7,3.8c0,0-0.5-2.8,1.7-4.1s4.4,0.1,4.7,0.6c0,0,1.6-0.2,2.4-0.8C102.6,12.6,102.1,14.2,101.1,14.6z"/>
</svg>
